# xmcd
# 
# Track frame offsets:
#     150
#     15676
#     33905
#     53810
#     74329
#     89913
#     115915
#     137097
#     157428
#     176174
#     196550
#     208239
# 
# Disc length: 3075
# 
# Revision: 5
# Processed by: cddbd v1.5.2PL0 Copyright (c) Steve Scherf et al.
# Submitted via: fre:ac v1.0.17
# 
DISCID=b30c010c
DTITLE=譚詠麟 - 第一滴淚
DYEAR=1986
DGENRE=Pop
TTITLE0=世界停頓
TTITLE1=第一滴淚
TTITLE2=的士司機
TTITLE3=永不想你
TTITLE4=最佳福星 (電影「最佳福星」主題曲)
TTITLE5=和平之歌 (86和平年音樂會主題曲)
TTITLE6=舊信紙
TTITLE7=刺客
TTITLE8=珍重
TTITLE9=夢想的幻彩
TTITLE10=衝線 (86禁毒宣傳歌曲)
TTITLE11=無言感激
EXTD=YEAR: 1986
EXTT0=
EXTT1=
EXTT2=
EXTT3=
EXTT4=
EXTT5=
EXTT6=
EXTT7=
EXTT8=
EXTT9=
EXTT10=
EXTT11=
PLAYORDER=
